<?xml version="1.0" standalone="no"?>
<!DOCTYPE svg PUBLIC "-//W3C//DTD SVG 20010904//EN"
 "http://www.w3.org/TR/2001/REC-SVG-20010904/DTD/svg10.dtd">
<svg version="1.0" xmlns="http://www.w3.org/2000/svg"
 width="500.000000pt" height="412.000000pt" viewBox="0 0 500.000000 412.000000"
 preserveAspectRatio="xMidYMid meet">

<g transform="translate(0.000000,412.000000) scale(0.100000,-0.100000)"
fill="#000000" stroke="none">
<path d="M3562 492 c-9 -7 -12 -42 -10 -143 l3 -134 615 0 615 0 3 129 c2 86
-1 133 -9 142 -10 12 -111 14 -608 14 -328 0 -602 -4 -609 -8z m218 -72 c24
-24 26 -63 5 -80 -14 -11 -13 -14 2 -25 18 -14 12 -45 -10 -45 -19 0 -40 26
-32 40 4 6 -6 10 -24 10 -24 0 -31 -4 -31 -20 0 -25 -29 -38 -41 -19 -13 20
-11 63 3 77 7 7 31 12 55 12 24 0 43 5 43 10 0 6 -22 10 -49 10 -50 0 -71 16
-48 39 19 19 104 14 127 -9z m220 -19 c0 -13 8 -21 23 -23 18 -2 23 -10 25
-40 2 -29 0 -38 -12 -38 -10 0 -16 9 -16 25 0 14 -4 25 -10 25 -5 0 -10 -11
-10 -25 0 -16 -6 -25 -15 -25 -10 0 -15 10 -15 32 0 25 -3 29 -12 20 -7 -7
-20 -12 -30 -12 -11 0 -18 -7 -18 -20 0 -11 -7 -20 -15 -20 -12 0 -15 13 -15
55 l0 55 33 0 c18 0 38 -5 45 -12 9 -9 12 -8 12 5 0 9 7 17 15 17 8 0 15 -9
15 -19z m379 -5 c9 -10 9 -20 2 -33 -6 -12 -6 -25 0 -34 7 -11 9 -9 9 7 0 12
7 27 15 34 19 16 65 5 65 -16 0 -12 4 -11 18 6 15 18 25 22 46 16 24 -6 27
-11 24 -39 -3 -27 -7 -33 -33 -35 -18 -2 -33 2 -41 12 -10 15 -12 15 -17 1
-10 -24 -104 -18 -122 9 l-15 20 0 -22 c0 -13 -6 -22 -15 -22 -12 0 -15 13
-15 55 l0 55 34 0 c18 0 39 -6 45 -14z m-183 -11 c9 -9 25 -12 42 -9 33 7 55
-14 50 -48 -3 -21 -9 -23 -65 -25 -56 -2 -63 0 -63 17 0 28 -18 34 -22 8 -2
-19 -9 -23 -38 -23 -29 0 -36 4 -38 23 -5 34 17 55 49 48 17 -3 32 0 39 9 16
19 28 19 46 0z m492 -47 c2 -29 0 -38 -12 -38 -10 0 -17 10 -17 28 l-2 27 -4
-27 c-5 -35 -33 -37 -33 -3 0 14 -4 25 -10 25 -5 0 -10 -11 -10 -25 0 -16 -6
-25 -15 -25 -11 0 -15 11 -15 40 l0 41 58 -3 57 -3 3 -37z"/>
<path d="M3910 370 c0 -5 4 -10 9 -10 6 0 13 5 16 10 3 6 -1 10 -9 10 -9 0
-16 -4 -16 -10z"/>
<path d="M4420 341 c0 -6 5 -13 10 -16 6 -3 10 1 10 9 0 9 -4 16 -10 16 -5 0
-10 -4 -10 -9z"/>
<path d="M4510 341 c0 -6 5 -13 10 -16 6 -3 10 1 10 9 0 9 -4 16 -10 16 -5 0
-10 -4 -10 -9z"/>
<path d="M4090 341 c0 -6 5 -13 10 -16 6 -3 10 1 10 9 0 9 -4 16 -10 16 -5 0
-10 -4 -10 -9z"/>
<path d="M4190 341 c0 -6 5 -13 10 -16 6 -3 10 1 10 9 0 9 -4 16 -10 16 -5 0
-10 -4 -10 -9z"/>
<path d="M4240 334 c0 -8 5 -12 10 -9 6 3 10 10 10 16 0 5 -4 9 -10 9 -5 0
-10 -7 -10 -16z"/>
</g>
</svg>
