<?xml version="1.0" encoding="utf-8"?>
<!-- Generator: Adobe Illustrator 27.5.0, SVG Export Plug-In . SVG Version: 6.00 Build 0)  -->
<svg version="1.1" id="Livello_1" xmlns="http://www.w3.org/2000/svg" xmlns:xlink="http://www.w3.org/1999/xlink" x="0px" y="0px"
	 viewBox="0 0 200 100" style="enable-background:new 0 0 200 100;" xml:space="preserve">
<style type="text/css">
	.st0{fill:#EA5B0C;stroke:#EA5521;stroke-miterlimit:10;}
	.st1{opacity:0.3;fill:#EA5B0C;stroke:#EA5521;stroke-miterlimit:10;}
	.st2{fill:#EAAC38;}
	.st3{fill:#EA5B0C;}
	.st4{font-family:'IdealistSansLight';}
	.st5{font-size:27.7258px;}
	.st6{font-size:5.5327px;}
	.st7{fill:#F4B439;}
	.st8{fill:#5D5D5D;}
	.st9{fill:#FFFFFF;}
</style>
<g>
	<path class="st0" d="M55,66.4H32.1c-4.8,0-8.8-3.9-8.8-8.8V34.8c0-4.8,3.9-8.8,8.8-8.8H55c4.8,0,8.8,3.9,8.8,8.8v22.9
		C63.8,62.5,59.8,66.4,55,66.4z"/>
	<path class="st1" d="M52.1,71.6l-27.3-6.3c-4.7-1.1-7.6-5.8-6.6-10.5l6.3-27.3c1.1-4.7,5.8-7.6,10.5-6.6l27.3,6.3
		c4.7,1.1,7.6,5.8,6.6,10.5l-6.3,27.3C61.5,69.8,56.8,72.7,52.1,71.6z"/>
	<path class="st2" d="M38.1,54.3"/>
	<text transform="matrix(1 0 0 1 73.0801 51.3652)" class="st3 st4 st5">Presto</text>
	<text transform="matrix(1 0 0 1 74.7676 62.0361)" class="st3 st4 st6">VENDI PRESTO IL TUO PRODOTTO!</text>
	<g>
		<path class="st7" d="M37.4,43.4c0,1.5,0,3.1,0,4.6c0,0.4-0.2,0.8-0.5,1c-0.2,0.1-0.3,0.2-0.5,0.2c-0.5,0.1-0.9-0.2-1.3-0.3
			c-0.7-0.3-1.4-0.6-2.2-0.9c-0.3-0.1-0.6-0.2-0.8-0.4c-0.1,0-0.1-0.1-0.1-0.2c0-0.8,0-1.6,0-2.4c0-0.4,0-0.8,0-1.1
			c0-1.9,0-3.8,0-5.7c0-0.7,0.5-1.2,1.2-1.3c0.2,0,0.5,0,0.7,0.1c0.2,0.1,0.4,0.2,0.6,0.3c0.4,0.1,0.7,0.3,1,0.5
			c0.4,0.2,0.8,0.3,1.2,0.5c0.2,0.1,0.4,0.2,0.6,0.2c0.2,0.1,0.2,0.1,0.2,0.3C37.4,40.3,37.4,41.8,37.4,43.4z M36.5,48.2
			c0.1,0,0.1,0,0.2-0.1c0.1,0,0.1-0.1,0-0.2c-0.2-0.1-0.3-0.2-0.5-0.2c-0.1,0-0.1,0-0.1,0.1C36.2,48,36.4,48.2,36.5,48.2z
			 M33.8,38.8c0.1,0,0.2,0,0.2-0.2c0-0.2-0.1-0.2-0.2-0.2c-0.1,0-0.2,0.1-0.2,0.2C33.6,38.7,33.6,38.8,33.8,38.8z M32.3,38.3
			c0,0.1,0,0.3,0.2,0.3c0.1,0,0.2,0,0.2-0.2c0-0.1-0.2-0.3-0.3-0.3C32.4,38.2,32.3,38.2,32.3,38.3z M33.5,44.4c-0.1,0-0.2,0-0.2,0.1
			c0,0.1,0.1,0.2,0.3,0.2c0.1,0,0.2,0,0.1-0.1C33.6,44.5,33.6,44.4,33.5,44.4z M36.3,46.1c0.1,0,0.2-0.1,0.1-0.1
			c-0.1-0.1-0.2-0.2-0.3-0.3c-0.1,0-0.1,0-0.1,0.1C36,46,36.1,46.1,36.3,46.1z M32.1,40.7c-0.1,0-0.2,0.1-0.2,0.2
			c0,0.1,0,0.2,0.1,0.2c0.1,0,0.2,0,0.2-0.2C32.4,40.7,32.2,40.7,32.1,40.7z M33.6,46.5c0.1,0.1,0.1,0.2,0.2,0.2c0.1,0,0.2,0,0.2,0
			c0-0.1,0-0.1-0.1-0.2C33.8,46.5,33.7,46.5,33.6,46.5z M34.2,42.6c-0.1,0-0.2,0-0.2,0.1c0,0.1,0,0.1,0.1,0.1c0.1,0,0.2,0,0.2-0.2
			C34.3,42.6,34.2,42.6,34.2,42.6z M33.7,45.4c0-0.1,0-0.1-0.1-0.1c-0.1,0-0.1,0-0.1,0.1c0,0.1,0.1,0.1,0.2,0.1
			C33.7,45.5,33.7,45.4,33.7,45.4z M35.4,47.8C35.4,47.7,35.4,47.7,35.4,47.8c-0.2-0.1-0.2-0.1-0.2,0c0,0.1,0,0.1,0.1,0.1
			C35.3,47.9,35.4,47.8,35.4,47.8z M36.7,43.3c0,0,0.1,0,0.1-0.1c0-0.1-0.1-0.1-0.1-0.1c-0.1,0-0.1,0-0.1,0.1
			C36.5,43.3,36.6,43.3,36.7,43.3z M34,40.6c-0.1,0-0.1,0-0.1,0.1c0,0.1,0,0.1,0.1,0.1c0.1,0,0.1,0,0.1-0.1
			C34.1,40.7,34,40.6,34,40.6z"/>
		<path class="st7" d="M48.6,37c0.3-0.1,0.5-0.2,0.7-0.1c0.7,0.1,1.1,0.7,1.2,1.4c0.1,2,0,3.9,0,5.9c0,1,0,2,0,3
			c0,0.1-0.1,0.3,0,0.4c0,0.1-0.1,0.1-0.1,0.1c-0.5,0.2-1.1,0.5-1.6,0.7c-0.6,0.3-1.3,0.5-1.9,0.8c-0.9,0.4-1.7-0.3-1.8-1.1
			c0-0.8,0-1.6,0-2.4c0-2.2,0-4.5,0-6.7c0-0.4,0-0.5,0.4-0.6c0.7-0.3,1.4-0.6,2.1-0.9c0.2-0.1,0.4-0.2,0.7-0.3
			c0.1-0.1,0.2-0.1,0.3,0c0,0,0.1,0,0.1,0c0.1,0,0.1,0,0.2,0c0-0.1,0-0.1-0.1-0.1C48.7,37,48.6,37,48.6,37z M48.4,42.4
			c-0.1,0-0.2-0.1-0.2,0c0,0.1,0.1,0.2,0.2,0.3c0.1,0.1,0.3,0.2,0.4,0.2c0.1,0,0.1,0,0.2-0.1C48.9,42.6,48.7,42.3,48.4,42.4z
			 M48.4,46.4c-0.1,0-0.3-0.1-0.2,0.1c0,0.1,0,0.3,0.2,0.3c0.1,0,0.3-0.2,0.3-0.3C48.6,46.4,48.5,46.5,48.4,46.4z M47.9,47.9
			C47.8,47.9,47.8,47.8,47.9,47.9c-0.2-0.1-0.4-0.2-0.5-0.1c-0.1,0-0.1,0.1-0.1,0.2c0.1,0.2,0.3,0,0.4,0C47.7,48,47.8,48,47.9,47.9z
			 M49.1,46.9c0-0.1,0-0.2-0.2-0.2c-0.1,0-0.3,0-0.3,0.2c0,0.2,0.2,0.1,0.3,0.1C49,47.1,49.1,47.1,49.1,46.9z M49.6,44.3
			c0,0.1,0,0.2,0.1,0.2c0.1,0,0.2,0,0.2-0.2c0-0.2-0.2-0.1-0.3-0.2C49.6,44.1,49.6,44.2,49.6,44.3z M46.8,45c0-0.2-0.1-0.2-0.2-0.2
			c-0.1,0-0.1,0-0.1,0.1c0,0.2,0.1,0.2,0.2,0.2C46.8,45.1,46.8,45.1,46.8,45z M46.5,46c0.1,0,0.1-0.1,0.1-0.1c0-0.1-0.1-0.2-0.2-0.2
			c0,0-0.1,0-0.1,0.1C46.4,45.9,46.4,46,46.5,46z M45.8,48.6c0,0.1,0,0.1,0.1,0.1c0.1,0,0.1,0,0.1-0.1c0-0.1,0-0.1-0.1-0.1
			C45.8,48.5,45.8,48.6,45.8,48.6z"/>
		<path class="st7" d="M44,43.3c0,1.2,0,2.5,0,3.7c0,0.4,0,0.8,0,1.1c0,0.1,0,0.2-0.1,0.2c-0.1,0-0.2,0-0.1,0.2
			c0.1,0.1,0.1,0.3-0.1,0.4c-0.2,0.2-0.6,0.3-0.9,0.3c-1.1,0-2.1,0-3.2,0c-0.6,0-1-0.3-1.2-0.9c0,0,0-0.1,0-0.1c0-1.4,0-2.8,0-4.1
			c0-0.1,0-0.2,0.1-0.3c0.1-0.1,0.1-0.1,0-0.1c-0.1-0.1-0.1-0.1-0.1-0.2c0-1.3,0-2.6,0-3.9c0-0.2,0-0.4,0.1-0.6
			c0.1-0.2,0.2-0.3,0.4-0.3c0.2-0.1,0.5-0.2,0.8-0.2c0.9,0,1.8,0,2.8,0c0.3,0,0.5,0,0.8,0c0.4,0,0.8,0.4,0.8,0.9
			C44,40.7,44,42,44,43.3z M40.1,44L40.1,44L40.1,44c0-0.1-0.1-0.1-0.1-0.1c-0.1-0.1-0.3-0.1-0.4-0.2c0-0.1-0.1-0.2-0.2-0.1
			c-0.1,0.1-0.1,0.2,0,0.3C39.5,44.1,39.9,44.2,40.1,44z M41.5,46.6c0.1,0,0.1,0,0.2-0.1c0.1,0,0.1-0.1,0-0.2
			c-0.2-0.1-0.3-0.2-0.5-0.2c0,0-0.1,0-0.1,0.1C41.1,46.4,41.3,46.6,41.5,46.6z M42.4,42.2c-0.1,0-0.2,0-0.2,0.1
			c0,0.1,0.1,0.1,0.2,0.1c0.1,0,0.3,0,0.2-0.1C42.6,42.2,42.5,42.2,42.4,42.2z M42.1,41.2c0.1,0,0.2,0,0.2-0.2
			c0-0.1-0.1-0.1-0.2-0.1c-0.1,0-0.2,0-0.2,0.1C42,41.2,42.1,41.2,42.1,41.2z M40.6,48.2c0.1,0.1,0.3,0.2,0.4,0.2
			c0.1,0,0.1,0,0.2-0.1c0,0,0-0.1-0.1-0.1C41,48.2,40.8,48.2,40.6,48.2z M41.1,44.3c-0.1,0-0.1,0-0.1,0.1c0,0.1,0.1,0.2,0.2,0.2
			c0.1,0,0.2,0,0.2-0.1C41.3,44.3,41.2,44.3,41.1,44.3z M42.3,45.5c-0.1,0-0.1,0-0.2,0.1c0,0,0,0.1,0,0.1c0.1,0.1,0.2,0,0.2,0
			c0,0,0.1,0,0.1,0c0,0,0.1,0,0.1-0.1c0-0.1-0.1-0.1-0.1-0.1C42.4,45.5,42.4,45.5,42.3,45.5z M40.7,43.8c0-0.1-0.1-0.1-0.1-0.1
			c-0.1,0-0.1,0-0.1,0.1c0,0.1,0.1,0.1,0.1,0.1C40.6,44,40.6,43.9,40.7,43.8z M39.8,48.5c0-0.1-0.1-0.1-0.1-0.1
			c-0.1,0-0.2,0-0.2,0.1c0,0.1,0.1,0.1,0.1,0.1C39.7,48.7,39.8,48.6,39.8,48.5z M39.1,41.1c-0.1,0-0.2,0-0.1,0.1
			c0,0.1,0,0.2,0.1,0.1c0.1,0,0.2-0.1,0.2-0.2C39.3,41.1,39.2,41.1,39.1,41.1z M39.2,44.3c0,0-0.1,0-0.1,0c0,0.1,0.1,0.1,0.2,0.2
			c0,0,0.1,0,0.1-0.1C39.4,44.3,39.2,44.4,39.2,44.3z M40.2,46.1c-0.1,0-0.2,0-0.1,0.1c0,0.1,0.1,0.1,0.2,0.1c0.1,0,0.1,0,0.1-0.1
			C40.3,46.1,40.2,46.1,40.2,46.1z M41,45c0-0.1-0.1-0.1-0.1-0.1c-0.1,0-0.1,0-0.1,0.1c0,0,0,0.1,0.1,0.1C40.9,45,41,45,41,45z
			 M39.5,39.7c-0.1-0.2-0.3-0.1-0.4-0.1C39.2,39.8,39.3,39.7,39.5,39.7z M43.5,45.2c0-0.1-0.1-0.1-0.1-0.1c0,0-0.1,0-0.1,0.1
			c0,0.1,0,0.1,0.1,0.1C43.4,45.3,43.5,45.3,43.5,45.2z"/>
		<path class="st7" d="M34,56.1c-0.3-0.1-0.6-0.2-0.9-0.3c-0.2-0.1-0.3-0.2-0.5-0.3c-0.6-0.5-1-1.2-1.2-2c0-0.2,0-0.4,0.1-0.6
			c0.2-0.6,0.5-1.1,0.9-1.5c0.4-0.3,0.8-0.5,1.3-0.5c0.6,0,1.1-0.1,1.7,0c1.9,0.1,3.8,0,5.7,0c0.1,0,0.2,0,0.2,0
			c0.3,0,0.4,0.1,0.5,0.4c0.1,0.2,0.1,0.5-0.1,0.7c-0.1,0.1-0.3,0.2-0.5,0.2c-2.4,0-4.9,0-7.3,0c-0.5,0-0.9,0.3-1.1,0.7
			c-0.3,0.8,0,1.5,0.8,1.9c0.1,0.1,0.2,0.1,0.4,0c0.3,0.2,0.6,0.2,0.9,0.1c0.1,0.1,0.1,0.1,0.2,0.1c0.3,0,0.7,0,1,0
			c0.4,0,0.6,0.2,0.5,0.7c0,0.3-0.2,0.5-0.6,0.5c-0.4,0-0.7,0.1-1.1,0C34.7,56.1,34.3,56.1,34,56.1z"/>
		<path class="st7" d="M51.2,36.5c0.1-0.5,0.2-0.8,0.7-1.1c0.7-0.3,1.4-0.6,2.1-0.9c0.6-0.3,1.2-0.6,1.8-0.8c0.5-0.2,1-0.4,1.5-0.7
			c0.2-0.1,0.5-0.1,0.7,0.1c0.1,0.1,0.3,0.2,0.4,0.3c0.4,0.5-0.1,1.1-0.5,1.2c-0.3,0.1-0.5,0.1-0.8-0.1c-0.1,0-0.1-0.1-0.2,0
			c-0.2,0.3-0.5,0.4-0.7,0.6c-0.6,0.5-1.3,0.9-1.9,1.4c-0.4,0.4-0.9,0.7-1.4,1c-0.3,0.2-0.9,0.2-1.2-0.1
			C51.4,37.4,51.2,37,51.2,36.5z M53.7,35.2c-0.1,0.1-0.2,0.2-0.2,0.3c-0.1,0.1-0.1,0.1,0,0.2c0.1,0.1,0.1,0,0.2,0
			C53.8,35.5,53.7,35.4,53.7,35.2z M56,34.2c0-0.1,0-0.2-0.1-0.2c-0.1,0-0.1,0.1-0.1,0.2c0,0.1,0.1,0.2,0.1,0.2
			C56,34.4,56,34.2,56,34.2z M58.3,33.8c-0.1,0-0.1,0-0.1,0.1c0,0.1,0,0.1,0.1,0.1c0.1,0,0.1-0.1,0.1-0.1
			C58.4,33.9,58.3,33.8,58.3,33.8z"/>
		<path class="st8" d="M43.9,54.8c0.1-0.4,0.3-0.7,0.5-0.9c0.4-0.5,0.9-0.9,1.6-1c0.5-0.1,1.1,0,1.6,0.2c0.8,0.4,1.3,1.1,1.4,1.9
			c0.1,0.9-0.2,1.7-0.9,2.3c-0.5,0.4-1.1,0.6-1.7,0.6c-1,0-1.7-0.5-2.2-1.4c-0.1-0.2-0.1-0.3-0.2-0.5c0.3,0,0.7,0,1,0
			c0.2,0.7,1.1,1.2,2,0.9c0.8-0.3,1.3-1.2,1-2c-0.2-0.6-0.6-1.1-1.5-1.1c-0.7,0-1.2,0.3-1.5,0.9c0,0-0.1,0-0.2,0
			C44.4,54.8,44.1,54.8,43.9,54.8z"/>
		<path class="st8" d="M34.9,54.8c-0.3,0.1-0.6,0.1-0.9-0.1c0.3-0.8,0.8-1.4,1.5-1.7c1.3-0.5,2.7,0.1,3.3,1.5
			c0.2,0.4,0.2,0.8,0.1,1.3c-0.1,0.7-0.5,1.3-1.1,1.7c-1,0.7-2,0.6-3-0.1c-0.4-0.3-0.7-0.8-0.9-1.3c0.3,0,0.7,0,1,0
			c0.2,0.5,0.6,0.8,1.2,0.9c0.6,0.1,1.1-0.1,1.5-0.6c0.4-0.5,0.5-1,0.3-1.5c-0.3-0.9-1-1.2-1.9-1C35.5,54,35.2,54.4,34.9,54.8z"/>
		<path class="st7" d="M44.9,56.1c-0.3,0-0.7,0-1,0c-1.2,0-2.4,0-3.6,0c-0.5,0-0.8-0.4-0.6-0.9c0.1-0.2,0.2-0.3,0.4-0.3
			c0.9-0.1,1.8,0,2.8,0c0.4,0,0.7,0,1.1,0c0.3,0,0.6,0,0.8,0c0.1,0,0.1,0,0.2,0c0.1,0.1,0.1,0.1,0.2,0.1c0.3,0,0.6,0,0.9,0
			c0.2,0,0.4,0,0.5,0.2c0.2,0.2,0.2,0.4,0.1,0.7c-0.1,0.3-0.3,0.3-0.6,0.4C45.6,56.1,45.2,56.1,44.9,56.1z"/>
		<polygon class="st9" points="40.1,44 40.1,44 40.1,44 		"/>
	</g>
</g>
</svg>
