<?xml version="1.0" encoding="UTF-8"?>
<svg id="uuid-8cce7c42-fd63-425e-be55-ddf76180c1e4" data-name="Livello 1" xmlns="http://www.w3.org/2000/svg" viewBox="0 0 52.45 52.12">
  <rect x="5.92" y="5.8" width="40.4" height="40.4" rx="8.75" ry="8.75" fill="#ea5b0c" stroke="#ea5521" stroke-miterlimit="10"/>
  <rect x="3.29" y="3.29" width="45.55" height="45.55" rx="8.75" ry="8.75" transform="translate(6.51 -5.18) rotate(12.96)" fill="#ea5b0c" opacity=".3" stroke="#ea5521" stroke-miterlimit="10"/>
  <g>
    <path d="m19.92,23.16c0,1.53,0,3.06,0,4.59,0,.42-.16.76-.49,1.02-.16.12-.35.17-.54.22-.52.14-.91-.17-1.34-.34-.73-.29-1.44-.64-2.16-.94-.28-.12-.56-.25-.83-.38-.09-.04-.11-.12-.11-.2,0-.8-.03-1.6.02-2.4.02-.39-.02-.76-.02-1.15.01-1.9,0-3.79,0-5.69,0-.66.52-1.21,1.16-1.3.24-.03.47.04.7.14.2.09.39.2.6.27.36.12.68.34,1.02.48.41.16.82.32,1.21.52.19.1.38.17.58.24.15.05.2.15.2.31,0,1.54,0,3.08,0,4.61Zm-.82,4.82c.06.01.13-.02.19-.06.06-.04.12-.13.04-.18-.15-.1-.3-.22-.5-.22-.06,0-.11,0-.11.09,0,.15.2.37.38.38Zm-2.78-9.4c.1-.02.22-.02.21-.2,0-.17-.12-.21-.24-.21-.12,0-.18.08-.18.2,0,.14.06.2.21.21Zm-1.41-.46c.03.13.03.3.21.33.09.01.21-.02.21-.16,0-.12-.15-.27-.3-.28-.09,0-.13.03-.12.12Zm1.15,6.09c-.13,0-.24.02-.22.14.02.14.15.18.28.2.07,0,.16-.03.13-.11-.03-.1-.06-.24-.19-.22Zm2.79,1.7c.06.02.16-.06.14-.09-.07-.14-.21-.2-.34-.26-.06-.03-.09.02-.08.08.02.15.08.26.28.28Zm-4.16-5.43c-.09-.01-.15.06-.15.17,0,.09.05.17.15.16.11-.01.23-.04.24-.17,0-.12-.1-.15-.23-.15Zm1.48,5.82c.06.12.15.16.25.19.07.03.15.02.18-.05.03-.09-.05-.13-.12-.15-.09-.03-.19-.02-.3,0Zm.6-3.88c-.11.02-.19.04-.18.15,0,.07.04.13.12.1.08-.03.19-.03.19-.15,0-.09-.08-.1-.13-.1Zm-.52,2.74c0-.08-.05-.12-.13-.11-.06,0-.13.02-.12.08.02.08.08.14.18.13.05,0,.09-.03.07-.1Zm1.69,2.38c0-.06-.01-.09-.08-.09-.08,0-.14.03-.15.11,0,.06.02.12.09.11.07,0,.13-.05.13-.13Zm1.3-4.42s.11,0,.11-.07c0-.09-.08-.1-.14-.11-.07-.01-.12.03-.13.1,0,.08.06.09.16.09Zm-2.7-2.72c-.06,0-.11.03-.12.11,0,.07.01.1.09.1.07,0,.12-.02.12-.1,0-.06-.02-.11-.1-.11Z" fill="#f4b439"/>
    <path d="m31.14,16.73c.25-.1.49-.17.75-.14.68.1,1.14.66,1.16,1.36.05,1.96.03,3.92.02,5.88,0,1.01-.02,2.02,0,3.02,0,.14-.08.26-.04.41.02.07-.06.07-.11.09-.55.25-1.1.5-1.65.74-.63.28-1.27.54-1.89.84-.91.44-1.74-.34-1.75-1.05,0-.8,0-1.6,0-2.4,0-2.24,0-4.48,0-6.73,0-.45,0-.46.42-.62.7-.27,1.37-.63,2.07-.89.23-.08.44-.2.66-.31.11-.06.2-.07.3.01.03.03.07.04.11.05.06,0,.13.03.16-.05.03-.08-.03-.1-.1-.12-.04,0-.06-.05-.11-.09Zm-.21,5.41c-.06.02-.19-.06-.23.05-.05.12.08.19.15.27.11.11.26.17.39.24.08.04.14,0,.15-.1.04-.24-.12-.52-.47-.46Zm.02,4.09c-.07.05-.26-.06-.23.12.02.12-.03.33.2.35.14.01.28-.16.28-.32,0-.18-.13-.13-.24-.14Zm-.53,1.46s-.02-.08-.07-.09c-.16-.05-.32-.07-.47.01-.08.04-.14.14-.07.22.14.16.28-.04.43-.03.07,0,.15-.02.18-.11Zm1.27-1.02c.01-.08-.04-.17-.15-.15-.13.02-.33.03-.33.2,0,.18.19.07.29.12.08.04.19,0,.19-.17Zm.49-2.54c0,.07-.02.18.15.16.13-.01.23-.04.23-.2,0-.18-.16-.14-.25-.17-.13-.03-.12.09-.12.21Zm-2.82.7c0-.19-.08-.24-.21-.24-.08,0-.13.03-.12.12,0,.15.1.2.23.21.09.01.11-.06.11-.09Zm-.26.95c.1,0,.13-.08.12-.12-.02-.1-.07-.18-.2-.16-.04,0-.1.02-.07.07.04.09.05.2.15.22Zm-.77,2.63c0,.1.05.14.14.14.07,0,.11-.04.1-.1,0-.09-.04-.14-.14-.15-.08,0-.11.03-.1.11Z" fill="#f4b439"/>
    <path d="m26.55,23.08c0,1.24,0,2.47,0,3.71,0,.38,0,.77,0,1.15,0,.09,0,.17-.13.18-.1,0-.24.03-.08.2.12.13.05.26-.06.38-.25.24-.55.32-.88.33-1.06.02-2.12.04-3.19.04-.59,0-.99-.27-1.18-.86-.01-.04-.02-.09-.02-.14,0-1.38,0-2.76,0-4.14,0-.11,0-.21.11-.27.1-.06.07-.1-.01-.14-.09-.05-.1-.13-.1-.23,0-1.3,0-2.61,0-3.91,0-.2-.01-.41.06-.59.06-.15.22-.27.37-.35.23-.13.48-.17.75-.17.92.02,1.85,0,2.77,0,.27,0,.54.01.8.04.4.03.8.45.8.94,0,1.28,0,2.57,0,3.85Zm-3.89.72h0s0,0,0,0c-.01-.06-.06-.06-.1-.08-.14-.06-.31-.09-.41-.23-.05-.07-.12-.15-.2-.09-.08.07-.05.18,0,.27.14.22.48.29.71.13Zm1.37,2.62c.08,0,.15-.04.22-.09.08-.05.11-.13.04-.18-.16-.1-.32-.21-.53-.21-.05,0-.1,0-.1.07,0,.14.22.4.37.4Zm.93-4.4c-.1,0-.21.02-.22.14,0,.1.1.13.18.12.1,0,.25,0,.25-.14,0-.11-.12-.1-.21-.11Zm-.25-.99c.11,0,.22-.04.23-.16.01-.12-.11-.09-.18-.09-.09,0-.2-.02-.2.13,0,.11.07.12.15.12Zm-1.51,6.97c.14.11.26.19.39.22.05.01.14.02.16-.05.01-.05-.05-.09-.1-.12-.13-.06-.27-.09-.45-.06Zm.47-3.91c-.06.01-.15-.02-.13.08.02.12.1.17.22.17.08,0,.18-.02.17-.11-.02-.13-.15-.13-.26-.14Zm1.19,1.23c-.05.02-.14-.01-.2.07-.03.04-.02.08.01.11.08.07.15.02.23,0,.03,0,.06,0,.08-.02.04-.03.13-.01.13-.08,0-.08-.09-.06-.15-.07-.03,0-.05,0-.11-.01Zm-1.64-1.68c0-.08-.07-.1-.13-.1-.07,0-.14.04-.14.12,0,.08.07.12.14.12.08,0,.12-.06.13-.13Zm-.9,4.69c0-.09-.05-.1-.12-.1-.09,0-.17.02-.17.13,0,.09.05.12.13.11.09,0,.16-.04.16-.15Zm-.65-7.47c-.08,0-.15.01-.14.11,0,.06,0,.15.1.14.1,0,.16-.1.18-.17.02-.07-.07-.09-.14-.08Zm.04,3.27s-.12-.02-.12.04c0,.12.13.13.21.15.05.01.15.03.15-.06,0-.16-.17-.07-.24-.14Zm1.03,1.78c-.05.01-.15-.02-.14.07.01.08.09.13.18.13.06,0,.11-.03.11-.1,0-.12-.09-.09-.16-.1Zm.8-1.16c-.02-.06-.08-.08-.13-.08-.07,0-.08.05-.07.1,0,.05.04.09.1.07.04-.01.1-.02.1-.08Zm-1.52-5.25c-.12-.19-.26-.11-.4-.12.09.18.23.11.4.12Zm4.03,5.53c0-.08-.08-.07-.12-.07-.05,0-.12,0-.11.07,0,.06.04.09.11.09.07,0,.12-.02.13-.1Z" fill="#f4b439"/>
    <path d="m16.56,35.89c-.29-.13-.6-.17-.89-.29-.19-.08-.35-.19-.5-.31-.65-.51-1.03-1.19-1.15-2-.03-.2.02-.42.08-.62.16-.6.49-1.12.95-1.52.36-.31.82-.49,1.32-.54.56-.05,1.11-.06,1.67-.04,1.9.07,3.79,0,5.69.04.08,0,.17,0,.25,0,.26,0,.44.12.53.35.1.25.08.5-.12.67-.13.11-.31.21-.51.21-2.44,0-4.89,0-7.33,0-.52,0-.91.26-1.1.74-.31.76,0,1.51.76,1.87.13.06.23.09.36.04.3.15.61.2.94.1.06.09.15.06.22.06.33,0,.66,0,.99,0,.38.02.56.25.55.69,0,.29-.25.51-.58.51-.37,0-.75.06-1.12,0-.33,0-.66,0-.99,0Z" fill="#f4b439"/>
    <path d="m33.75,16.32c.06-.49.22-.84.73-1.06.69-.29,1.37-.6,2.06-.91.61-.28,1.22-.57,1.84-.84.51-.22,1.02-.44,1.52-.68.24-.11.48-.08.67.12.12.12.28.17.39.31.39.5-.05,1.11-.5,1.25-.28.08-.53.06-.78-.07-.06-.03-.13-.07-.18.02-.17.3-.48.43-.74.63-.61.48-1.25.92-1.86,1.41-.45.36-.92.69-1.39,1.02-.27.19-.88.16-1.19-.09-.37-.28-.55-.66-.58-1.11Zm2.55-1.3c-.09.1-.16.18-.24.26-.05.05-.09.11-.01.17.07.05.13.04.19-.03.09-.12.05-.24.06-.39Zm2.26-1.07c-.01-.09.03-.21-.1-.22-.12,0-.14.11-.15.21,0,.1.06.18.15.19.14.01.07-.12.1-.18Zm2.25-.38c-.05.02-.12.04-.11.12.01.06.04.14.11.15.07,0,.13-.05.12-.13,0-.06-.04-.13-.13-.14Z" fill="#f4b439"/>
    <path d="m26.43,34.59c.08-.35.27-.66.49-.94.4-.51.92-.86,1.55-.95.54-.08,1.08-.02,1.58.25.77.41,1.27,1.05,1.38,1.92.12.93-.2,1.72-.93,2.33-.48.41-1.05.59-1.65.57-.99-.03-1.73-.54-2.2-1.41-.09-.17-.15-.35-.22-.52.33,0,.67,0,1,0,.23.66,1.07,1.2,1.96.91.82-.27,1.3-1.17,1.04-2-.18-.57-.65-1.13-1.51-1.12-.71,0-1.17.32-1.49.92-.05.03-.09.05-.15.05-.28,0-.56,0-.84,0Z" fill="#5d5d5d"/>
    <path d="m17.49,34.61c-.33.1-.64.05-.94-.1.26-.78.76-1.36,1.54-1.66,1.3-.5,2.73.1,3.29,1.48.17.41.18.84.11,1.29-.11.74-.49,1.31-1.11,1.71-1.01.65-2.03.59-2.96-.12-.45-.34-.73-.79-.87-1.32.33,0,.66,0,.99,0,.2.55.63.84,1.17.94.58.1,1.09-.1,1.47-.55.38-.45.48-.98.31-1.55-.27-.87-1.03-1.22-1.93-1.05-.52.1-.86.46-1.09.94Z" fill="#5d5d5d"/>
    <path d="m27.42,35.85c-.33,0-.67,0-1,0-1.19,0-2.39,0-3.58,0-.53,0-.8-.38-.64-.88.06-.2.19-.3.4-.32.92-.08,1.84-.02,2.77-.04.35,0,.7,0,1.05,0,.28,0,.56,0,.84,0,.06,0,.11-.02.15-.05.06.06.14.05.21.05.29,0,.58,0,.87,0,.19,0,.37.04.49.21.16.21.17.44.08.68-.09.25-.3.34-.55.35-.37,0-.73,0-1.1,0Z" fill="#f4b439"/>
    <polygon points="22.65 23.79 22.66 23.8 22.65 23.79 22.65 23.79" fill="#fff"/>
  </g>
</svg>